<svg version="1" xmlns="http://www.w3.org/2000/svg" width="834.667" height="834.667" viewBox="0 0 626.000000 626.000000"><path d="M224.7 1.7c-1 2.1-27 109.3-26.6 109.8.3.3 60 .4 132.6.3l132-.3-15.2-55-15.2-55-103.6-.3c-57-.1-103.8.1-104 .5zM194.5 144.2c-1.2 3.1-22.5 91.5-22.5 93.2 0 1.8 1 1.8 30.8 1.2 16.9-.3 78.4-1.1 136.7-1.6 58.3-.6 116.4-1.3 129.1-1.6l23.1-.6-11.5-45.9-11.4-45.9h-137c-108.6 0-137 .3-137.3 1.2zM164.3 268.7c-1.5 3.7-22 92.8-21.6 93.5.2.5 84.8.8 187.9.8 155.8 0 187.4-.2 187.4-1.3 0-2-21.7-92.4-22.5-93.7-.4-.7-53.2-1-165.6-1-156.2 0-165 .1-165.6 1.7zM132.5 391.2c-1.5 4.2-28.5 112.1-28.2 112.5.6.5 446.9-2.6 447.4-3.1.2-.2-5.4-25.2-12.4-55.5L526.5 390H329.7c-156.5 0-196.9.3-197.2 1.2zM97.5 536.2c-.2.7-4.6 16.1-9.6 34.3-5.1 18.1-9.6 33.5-10.1 34.1-.5.7-8 4.9-16.8 9.5s-16 9-16 9.6c0 1 20.6 1.3 99.7 1.3 54.8 0 99.4-.3 99-.6-.3-.4-9.3-4.7-19.9-9.6-10.6-4.9-19.7-9.3-20.1-9.7-.6-.6 7.8-59.1 9.8-67.9l.5-2.2h-58c-45.6 0-58.2.3-58.5 1.2z"/></svg>