<?xml version="1.0" standalone="no"?>
<!DOCTYPE svg PUBLIC "-//W3C//DTD SVG 20010904//EN"
 "http://www.w3.org/TR/2001/REC-SVG-20010904/DTD/svg10.dtd">
<svg version="1.0" xmlns="http://www.w3.org/2000/svg"
 width="217.000000pt" height="217.000000pt" viewBox="0 0 217.000000 217.000000"
 preserveAspectRatio="xMidYMid meet">
<metadata>
Created by potrace 1.11, written by Peter Selinger 2001-2013
</metadata>
<g transform="translate(0.000000,217.000000) scale(0.100000,-0.100000)"
fill="#000000" stroke="none">
<path d="M0 1195 l0 -265 70 0 70 0 0 265 0 265 -70 0 -70 0 0 -265z"/>
<path d="M190 1195 l0 -265 70 0 70 0 0 103 1 102 46 -102 47 -103 68 0 68 0
0 265 0 265 -70 0 -70 0 -1 -97 -1 -98 -46 98 -46 97 -68 0 -68 0 0 -265z"/>
<path d="M620 1448 c-1 -7 21 -127 47 -265 l47 -253 83 0 c58 0 85 4 88 13 7
19 95 484 95 501 0 13 -13 16 -64 16 -42 0 -66 -4 -69 -12 -2 -7 -13 -68 -22
-135 -10 -68 -21 -123 -25 -123 -3 0 -14 51 -24 113 -27 172 -18 157 -92 157
-44 0 -64 -4 -64 -12z"/>
<path d="M1067 1432 c-3 -17 -9 -41 -13 -56 l-6 -26 116 0 116 0 -6 28 c-21
84 -11 77 -111 80 l-90 3 -6 -29z"/>
<path d="M1430 1195 l0 -265 156 0 156 0 29 29 29 29 0 207 0 207 -31 29 -31
29 -154 0 -154 0 0 -265z m228 -2 l3 -123 -46 0 -45 0 0 126 0 125 43 -3 42
-3 3 -122z"/>
<path d="M1860 1195 l0 -265 155 0 155 0 0 70 0 70 -90 0 -90 0 0 30 0 30 90
0 91 0 -3 68 -3 67 -87 3 c-86 3 -88 3 -88 27 0 25 1 25 90 25 l90 0 0 70 0
70 -155 0 -155 0 0 -265z"/>
<path d="M1047 1333 c-3 -5 -9 -25 -15 -45 l-10 -38 139 0 c76 0 139 3 139 8
0 4 -5 24 -11 45 l-10 37 -114 0 c-63 0 -116 -3 -118 -7z"/>
<path d="M1011 1193 c-6 -21 -11 -41 -11 -45 0 -5 72 -8 160 -8 159 0 160 0
160 23 0 12 -3 32 -6 45 -6 22 -9 22 -150 22 l-143 0 -10 -37z"/>
<path d="M981 1086 c-6 -25 -11 -47 -11 -50 0 -3 87 -6 194 -6 l194 0 -12 48
-12 47 -171 3 -171 2 -11 -44z"/>
<path d="M967 1013 c-2 -5 -7 -20 -11 -34 -3 -15 -15 -29 -26 -32 -35 -9 -22
-25 25 -33 76 -11 179 14 131 32 -10 4 -13 15 -9 40 l6 34 -56 0 c-31 0 -58
-3 -60 -7z"/>
<path d="M1247 1014 c-3 -3 -4 -11 -2 -17 2 -7 6 -24 9 -39 6 -27 9 -28 67
-28 53 0 60 2 55 18 -3 9 -8 29 -12 45 -6 25 -10 27 -58 27 -29 0 -55 -3 -59
-6z"/>
<path d="M211 866 c-7 -9 -11 -38 -9 -73 l3 -58 45 -1 c39 -1 40 -1 8 3 -34 4
-38 7 -38 33 0 25 4 29 33 33 l32 4 -32 1 c-28 2 -33 6 -33 27 0 22 4 25 35
25 19 0 35 5 35 10 0 15 -66 12 -79 -4z"/>
<path d="M367 874 c-4 -4 -7 -38 -7 -76 l0 -68 38 0 c21 0 43 5 50 12 16 16
15 103 -1 117 -18 14 -70 25 -80 15z m68 -74 c0 -55 0 -55 -32 -58 l-33 -3 0
61 0 61 33 -3 c32 -3 32 -3 32 -58z"/>
<path d="M898 869 c-30 -17 -21 -47 23 -74 45 -29 47 -48 5 -53 -21 -3 -29 1
-33 17 -3 11 -9 18 -14 15 -5 -3 -4 -14 2 -25 8 -16 19 -19 47 -17 31 3 37 7
40 28 2 20 -5 29 -35 45 -21 11 -38 27 -38 35 0 22 46 25 62 4 12 -16 13 -16
13 -1 0 9 -9 21 -19 27 -24 12 -31 12 -53 -1z"/>
<path d="M1050 860 c-13 -13 -20 -33 -20 -56 0 -54 15 -74 55 -74 40 0 55 20
55 74 0 38 -28 76 -55 76 -8 0 -24 -9 -35 -20z m65 -60 c0 -54 0 -55 -30 -55
-28 0 -30 3 -33 44 -4 60 2 73 35 69 27 -3 28 -5 28 -58z"/>
<path d="M1504 868 c-3 -4 4 -8 15 -8 19 0 21 -6 21 -65 0 -37 4 -65 10 -65 6
0 10 28 10 65 0 58 2 65 20 65 11 0 20 4 20 9 0 11 -89 11 -96 -1z"/>
<path d="M1770 873 c-24 -9 -30 -25 -30 -74 0 -55 15 -72 62 -67 l33 3 3 63
c3 59 2 63 -23 72 -15 6 -27 10 -28 9 -1 0 -9 -3 -17 -6z m48 -70 c-3 -54 -5
-58 -28 -58 -22 0 -25 5 -28 44 -4 57 2 71 33 71 25 0 26 -2 23 -57z"/>
<path d="M2088 869 c-30 -17 -21 -47 23 -74 45 -29 47 -48 6 -53 -21 -3 -30 2
-37 20 l-10 23 3 -25 c2 -20 8 -26 35 -28 35 -4 62 11 62 33 0 8 -19 24 -42
37 -24 13 -43 30 -43 38 0 22 46 25 62 4 7 -10 16 -14 20 -10 9 9 -33 46 -51
46 -6 0 -19 -5 -28 -11z"/>
<path d="M12 798 l1 -73 6 55 6 55 22 -53 c12 -30 27 -51 32 -48 5 4 18 28 28
54 l18 47 6 -55 6 -55 1 73 c1 39 -2 72 -7 72 -5 0 -20 -27 -32 -59 l-24 -60
-23 60 c-13 32 -28 59 -33 59 -5 0 -8 -33 -7 -72z"/>
<path d="M520 800 c0 -45 4 -69 10 -65 6 3 10 33 10 65 0 32 -4 62 -10 65 -6
4 -10 -20 -10 -65z"/>
<path d="M646 862 c-14 -23 -47 -124 -42 -129 3 -3 8 2 12 11 9 22 70 22 83
-1 21 -38 18 -4 -6 60 -24 63 -35 78 -47 59z m18 -90 c-34 -5 -35 -2 -22 43
l12 38 18 -39 17 -39 -25 -3z"/>
<path d="M1202 803 l-2 -73 43 2 42 1 -37 4 -37 4 -4 67 -3 67 -2 -72z"/>
<path d="M1354 805 l1 -70 40 0 40 0 1 70 1 70 -6 -65 c-6 -64 -6 -65 -36 -65
-30 0 -30 1 -36 65 l-6 65 1 -70z"/>
<path d="M1660 800 c0 -40 4 -70 10 -70 6 0 10 30 10 70 0 40 -4 70 -10 70 -6
0 -10 -30 -10 -70z"/>
<path d="M1900 800 c0 -40 4 -70 10 -70 6 0 10 26 10 58 l0 57 33 -57 c17 -32
35 -58 39 -58 5 0 7 33 6 73 l-1 72 -6 -58 -6 -59 -30 56 c-41 77 -55 73 -55
-14z"/>
</g>
</svg>
