<svg version="1" xmlns="http://www.w3.org/2000/svg" width="1365.333" height="1365.333" viewBox="0 0 1024.000000 1024.000000"><path d="M471.5 198.1c-83.2 4.4-163.6 21.6-235 50.1-33.1 13.2-76.7 36.5-103.3 55.2-28.4 19.9-57.4 46.5-75.2 68.6-22.8 28.6-39.7 61.1-47.5 91.9C-.7 508.3 3.1 551.4 22.1 596 44 647 91.3 697.7 152.8 735.8c124.4 77.3 301.8 109.4 472.7 85.6 114.4-16 217.4-56.7 290.5-115 15.2-12.1 43.2-39.6 53.4-52.4 45.4-57 62.2-119.6 49-182.1-13.7-65.2-60.5-126.3-133.4-174.4-20.8-13.7-33.5-20.9-58.5-33.1-100.8-49.1-228.8-73-355-66.3zM582 227.4c64.3 6.1 117.4 17.1 170.4 35.3 94.4 32.4 168.6 83.5 208.8 143.8 14.9 22.3 26.1 48.5 30.9 72 2.7 13.7 3.7 42.8 1.9 57.2-7 55.9-43.3 111.4-101.5 155.4C817.3 747.9 713 785.2 595 797.4c-50.9 5.3-111.9 5.3-163 .1-180-18.7-327.7-97.1-380.3-202.1-9.1-18.1-15.3-38.2-18.3-58.4-2.2-15.5-1.5-41.9 1.6-57.4 12.5-62.8 58.6-120.8 132.4-166.8 25.8-16.1 66-35.3 99-47.2 57.8-21 126.9-34.9 197.1-39.6 20.5-1.3 99.1-.4 118.5 1.4z"/><path d="M339.5 265.5c-40.1 9.2-84.1 24.9-121 43-41.2 20.2-71.8 41.1-98.9 67.4-34.4 33.6-54.2 67.4-62.7 107.1-1.9 8.9-2.3 13.6-2.3 30 0 21.4 1.3 30.3 7.5 49.9 4.2 13.1 15.6 36.2 23.1 46.3 26.8 36.3 73.9 76.7 117.5 100.7 12 6.6 39.3 19.4 40 18.8.2-.3-2.1-4.3-5.2-9.1-13.8-21.1-21.6-43-21.7-60.6 0-11 1.2-16.2 5.5-24.3 12.1-22.9 45.2-28.2 78.3-12.8 25.1 11.8 48.7 35.1 64.9 63.9 2.2 3.9 4.3 7.2 4.6 7.2.3 0 1.3-2.5 2.3-5.6 6.7-21.4 19.5-38.8 33.5-45.7 6.1-3 7.3-3.2 16.7-3.2 10 0 10.1 0 19.8 4.8 29.7 14.8 55.9 56.8 70.6 113.1 2.2 8.2 4.1 15 4.3 15.2.2.2 1.2-3.3 2.1-7.8 4.5-20.8 16.4-51.9 26.9-70.6 11.3-19.9 27.5-38.5 40-46.1 10.8-6.4 17.3-8.5 27.3-8.5 8.5-.1 9.5.1 16.6 3.7 10.8 5.3 19 14.4 26.3 28.8 2.9 5.9 6.2 13.3 7.1 16.3 1 3.1 2 5.6 2.3 5.6.3 0 2.5-3.5 4.9-7.8 24.9-45 68.2-74.5 105.5-71.9 10.7.7 17.2 2.8 24.9 8 12.1 8.1 17.8 20.2 17.8 37.6 0 17.7-6.4 36.2-20.1 58.3-2.6 4.3-4.5 7.8-4.2 7.8 1.6 0 28.9-13.8 41.4-21 71.8-41.2 118-93.8 132.8-151.2 7.8-30.3 6.5-62.1-4-92.4-10.5-30.5-28.2-56.8-57-84.9-41.6-40.5-99.7-73.2-171-96.3-19.6-6.4-49.3-14.6-51-14-.5.2 1.1 3.2 3.6 6.8 26.7 37.7 41.4 81.1 39 115.3-2.3 32.8-15.6 59.2-37 73.6-32.2 21.5-66.6 9.8-84.9-28.9-8.4-17.8-8.8-19.9-16.8-96.9-5.1-48.7-7.6-69.7-8.3-69.1-.6.5-7.2 8.8-14.6 18.4l-13.4 17.5h-71L467 283.3c-8-10.3-14.6-18.1-14.7-17.3-.2.8-3.4 32.1-7.3 69.5s-7.3 69.3-7.6 71c-1.2 5.8-6.7 21-9.7 27-10.7 21.3-26.8 34.7-45.1 37.5-25.5 3.9-51.9-13.1-66.1-42.4-20.3-42.1-10.8-97.5 26.2-152.4 4.6-6.8 8.3-12.6 8.3-12.8 0-.6-.5-.5-11.5 2.1z"/></svg>