<svg version="1.0" xmlns="http://www.w3.org/2000/svg" width="426.667" height="426.667" viewBox="0 0 320 320"><path d="M7 149c0 2.7.3 3 3 3h3v22h42v-5.9c0-5.8-.1-6-3-6.6-1.6-.4-3-1-3-1.5s1.4-1.1 3-1.5c2.9-.6 3-.8 3-6.6V146H7v3zm37 3.9c0 1.7-8.1 4.1-14 4.1-5.7 0-6-.1-6-2.5V152h10c5.5 0 10 .4 10 .9zm-4 11.7c2.2.9 4 2 4 2.5s-4.5.9-10 .9H24v-2.5c0-2.4.3-2.5 6-2.5 3.3 0 7.8.7 10 1.6zM58 149c0 2.7.3 3 3 3h3v22h11v-28H58v3zm24.2 4.2l.3 7.2 8.5 1.3c19.8 3 22 3.5 22 4.9 0 1.1-2.1 1.4-9.9 1.4-6.5 0-10.1-.4-10.3-1.1-.4-1.2-9.4-3-10.3-2.1-.3.3-.5 2.5-.5 4.9v4.3h42v-6.9c0-8 1.6-7-15.5-9.6-14.4-2.2-15.5-2.5-15.5-4.1 0-2 18.8-2 20.4 0 .6.8 3.2 1.7 5.9 2.1l4.7.6V146H81.9l.3 7.2zm49 0l.3 7.2 8 1.3c4.4.7 11 1.8 14.8 2.4 4.6.7 6.7 1.5 6.7 2.5 0 1.1-2 1.4-9.4 1.4-5.5 0-9.6-.4-9.8-1-.2-.6-2.7-1.4-5.6-1.9l-5.2-.8v9.7h41v-7c0-8.1 1.6-7.1-15.5-9.5-13.5-2-14.5-2.3-14.5-4.1 0-2 17.8-2 19.4 0 .6.8 3.2 1.7 5.9 2.1l4.7.6V146h-41.1l.3 7.2zM180 149c0 2.5.4 3 2.5 3 1.4 0 2.5.2 2.5.4s-2 4.9-4.5 10.5-4.5 10.4-4.5 10.6c0 .3 2.6.5 5.8.5 5.7 0 5.8 0 7.1-3.5l1.2-3.5h16.8l1.2 3.5c1.3 3.5 1.4 3.5 7.1 3.5 3.2 0 5.8-.1 5.8-.3 0-.2-2.6-6.4-5.9-13.8l-5.9-13.4-14.6-.3-14.6-.3v3.1zm22.1 7.7l1.8 4.3h-5.4c-5.4 0-5.4 0-4.5-2.6 3-7.8 5.3-8.2 8.1-1.7zM217 149c0 2.7.3 3 3 3h3v22h42v-21.7l-5.9-3.2-5.9-3.1H217v3zm34.5 4.2c2.3 1 2.5 1.6 2.5 8v6.8h-20v-16h7.5c4.1 0 8.6.5 10 1.2zM273 149c0 2.5.4 3 2.5 3 1.4 0 2.5.2 2.5.4s-2 4.9-4.5 10.5-4.5 10.4-4.5 10.6c0 .3 2.5.5 5.5.5 5.3 0 5.6-.1 7.2-3.5l1.7-3.5h16.4l1.2 3.5c1.1 3.5 1.2 3.5 7.1 3.5 3.2 0 5.9-.1 5.9-.3 0-.1-2.7-6.3-5.9-13.7l-5.9-13.5-14.6-.3-14.6-.3v3.1zm22 7.7l1.9 4.3h-5.4c-5.4 0-5.4 0-4.5-2.6 3-7.7 5.1-8.2 8-1.7z"/></svg>