<?xml version="1.0" standalone="no"?>
<!DOCTYPE svg PUBLIC "-//W3C//DTD SVG 20010904//EN"
 "http://www.w3.org/TR/2001/REC-SVG-20010904/DTD/svg10.dtd">
<svg version="1.0" xmlns="http://www.w3.org/2000/svg"
 width="320.000000pt" height="320.000000pt" viewBox="0 0 320.000000 320.000000"
 preserveAspectRatio="xMidYMid meet">
<metadata>
Created by potrace 1.11, written by Peter Selinger 2001-2013
</metadata>
<g transform="translate(0.000000,320.000000) scale(0.100000,-0.100000)"
fill="#000000" stroke="none">
<path d="M70 1710 c0 -27 3 -30 30 -30 l30 0 0 -110 0 -110 210 0 210 0 0 59
c0 58 -1 60 -30 66 -16 4 -30 10 -30 15 0 5 14 11 30 15 29 6 30 8 30 66 l0
59 -240 0 -240 0 0 -30z m370 -39 c0 -17 -81 -41 -140 -41 -57 0 -60 1 -60 25
l0 25 100 0 c55 0 100 -4 100 -9z m-40 -117 c22 -9 40 -20 40 -25 0 -5 -45 -9
-100 -9 l-100 0 0 25 c0 24 3 25 60 25 33 0 78 -7 100 -16z"/>
<path d="M580 1710 c0 -27 3 -30 30 -30 l30 0 0 -110 0 -110 55 0 55 0 0 140
0 140 -85 0 -85 0 0 -30z"/>
<path d="M822 1668 l3 -72 85 -13 c198 -30 220 -35 220 -49 0 -11 -21 -14 -99
-14 -65 0 -101 4 -103 11 -4 12 -94 30 -103 21 -3 -3 -5 -25 -5 -49 l0 -43
210 0 210 0 0 69 c0 80 16 70 -155 96 -144 22 -155 25 -155 41 0 20 188 20
204 0 6 -8 32 -17 59 -21 l47 -6 0 50 0 51 -210 0 -211 0 3 -72z"/>
<path d="M1312 1668 l3 -72 80 -13 c44 -7 110 -18 148 -24 46 -7 67 -15 67
-25 0 -11 -20 -14 -94 -14 -55 0 -96 4 -98 10 -2 6 -27 14 -56 19 l-52 8 0
-48 0 -49 205 0 205 0 0 70 c0 81 16 71 -155 95 -135 20 -145 23 -145 41 0 20
178 20 194 0 6 -8 32 -17 59 -21 l47 -6 0 50 0 51 -205 0 -206 0 3 -72z"/>
<path d="M1800 1710 c0 -25 4 -30 25 -30 14 0 25 -2 25 -4 0 -2 -20 -49 -45
-105 -25 -56 -45 -104 -45 -106 0 -3 26 -5 58 -5 57 0 58 0 71 35 l12 35 84 0
84 0 12 -35 c13 -35 14 -35 71 -35 32 0 58 1 58 3 0 2 -26 64 -59 138 l-59
134 -146 3 -146 3 0 -31z m221 -77 l18 -43 -54 0 c-54 0 -54 0 -45 26 30 78
53 82 81 17z"/>
<path d="M2170 1710 c0 -27 3 -30 30 -30 l30 0 0 -110 0 -110 210 0 210 0 0
109 0 108 -59 32 -59 31 -181 0 -181 0 0 -30z m345 -42 c23 -10 25 -16 25 -80
l0 -68 -100 0 -100 0 0 80 0 80 75 0 c41 0 86 -5 100 -12z"/>
<path d="M2730 1710 c0 -25 4 -30 25 -30 14 0 25 -2 25 -4 0 -2 -20 -49 -45
-105 -25 -56 -45 -104 -45 -106 0 -3 25 -5 55 -5 53 0 56 1 72 35 l17 35 82 0
82 0 12 -35 c11 -35 12 -35 71 -35 32 0 59 1 59 3 0 1 -27 63 -59 137 l-59
135 -146 3 -146 3 0 -31z m220 -77 l19 -43 -54 0 c-54 0 -54 0 -45 26 30 77
51 82 80 17z"/>
</g>
</svg>
