<?xml version="1.0" encoding="utf-8"?>
<!-- Generator: Adobe Illustrator 22.0.0, SVG Export Plug-In . SVG Version: 6.00 Build 0)  -->
<svg version="1.1" id="Layer_1" xmlns="http://www.w3.org/2000/svg" xmlns:xlink="http://www.w3.org/1999/xlink" x="0px" y="0px"
	 viewBox="0 0 164.9 170.3" style="enable-background:new 0 0 164.9 170.3;" xml:space="preserve">
<style type="text/css">
	.st0{fill:none;}
	.st1{fill:#FF110A;}
	.st2{font-family:'Century';}
	.st3{font-size:91px;}
</style>
<path d="M152.8,51.8L152.8,51.8c0.1-0.1,0.1-0.2,0.2-0.3l0,0c0-0.1,0.1-0.1,0.1-0.2c0-0.1,0.1-0.2,0.1-0.3s0.1-0.3,0.1-0.4V19.9
	c0-5.2-4.3-9.5-9.5-9.5h-4.5v-3c0-0.2,0-0.4,0-0.5c-0.1-4.1-3.6-7.3-7.7-7.2c-4.1,0.2-7.3,3.6-7.2,7.7v3h-8.1v-3c0-0.2,0-0.4,0-0.5
	c-0.1-4.1-3.6-7.3-7.7-7.2c-4.1,0.2-7.3,3.6-7.2,7.7v3h-8.5v-3c0-0.2,0-0.4,0-0.5c-0.1-4.1-3.6-7.3-7.7-7.2
	c-4.1,0.2-7.3,3.6-7.2,7.7v3h-8.8v-3c0-0.2,0-0.4,0-0.5c-0.2-4.1-3.6-7.3-7.7-7.2c-4.1,0.2-7.3,3.6-7.2,7.7v4.3h-2.8
	c-4.5,0-8.2,3.7-8.2,8.2c0,1.1,0.9,1.9,1.9,1.9l0,0c1,0,1.9-0.9,1.9-1.9c0-2.4,2-4.4,4.4-4.4h2.8v4.9c0,4.1,3.3,7.4,7.4,7.4
	s7.4-3.3,7.4-7.4v-6.2h8.8v6.2c0,4.1,3.3,7.4,7.4,7.4c4.1,0,7.4-3.3,7.4-7.4v-6.2h8.5v6.2c0,4.1,3.3,7.4,7.4,7.4
	c4.1,0,7.4-3.3,7.4-7.4v-6.2h8.2v6.2c0,4.1,3.3,7.4,7.4,7.4c4.1,0,7.4-3.3,7.4-7.4v-6.2h4.4c3.1,0,5.7,2.6,5.7,5.7v11.7h-102v-2.2
	c0-0.1,0-0.2,0-0.3c-0.1-1-1-1.8-2-1.8c-1,0.1-1.8,1-1.8,2v59.1c0,5.1,4.1,9.2,9.2,9.3h61.9c5.4,5,12.5,8,20.4,8
	c6.3,0,12.5-2,17.7-5.7c0.1,0,0.1-0.1,0.2-0.1c0.8-0.7,0.9-1.9,0.3-2.7c-0.7-0.8-1.9-0.9-2.7-0.3c-9.6,7-22.7,6.8-32-0.7
	c-11.3-9.1-13.1-25.6-4-36.9s25.6-13.1,36.9-4s13.1,25.6,4,36.9c0,0.1-0.1,0.1-0.1,0.2c-0.6,0.8-0.4,2,0.4,2.7
	c0.9,0.6,2,0.4,2.7-0.4c4.3-5.3,6.7-12,6.7-18.9C164.9,65.9,160.1,57.2,152.8,51.8z M65.4,20.4c0,2-1.6,3.6-3.6,3.6
	s-3.6-1.6-3.6-3.6v-13c0-2,1.6-3.6,3.6-3.6l0,0l0,0c2,0,3.6,1.6,3.6,3.7V20.4z M89.1,20.4c0,2-1.6,3.6-3.6,3.6s-3.6-1.6-3.6-3.6v-13
	c0-2,1.6-3.6,3.6-3.6l0,0l0,0c2,0,3.6,1.6,3.6,3.7V20.4z M112.5,20.4c0,2-1.6,3.6-3.6,3.6s-3.6-1.6-3.6-3.6v-13c0-2,1.6-3.6,3.6-3.6
	l0,0l0,0c2,0,3.6,1.6,3.6,3.7V20.4z M135.6,20.4c0,2-1.6,3.6-3.6,3.6s-3.6-1.6-3.6-3.6v-13c0-2,1.6-3.6,3.6-3.6l0,0l0,0
	c2,0,3.6,1.6,3.6,3.7V20.4z M64.5,94h-12c-3,0-5.4-2.5-5.4-5.5V78h17.4V94z M64.5,74.2H47.1V56.7h17.4
	C64.5,56.7,64.5,74.2,64.5,74.2z M64.5,52.9H47.1V35.4h17.4C64.5,35.4,64.5,52.9,64.5,52.9z M85.8,94H68.3V78h17.4L85.8,94L85.8,94z
	 M85.8,74.2H68.3V56.7h17.4L85.8,74.2L85.8,74.2z M85.8,52.9H68.3V35.4h17.4L85.8,52.9L85.8,52.9z M89.6,35.4h17.5v17.5H89.6V35.4z
	 M89.6,56.7h17.5v6c0,0.4,0.1,0.8,0.4,1.1c-1.4,3.2-2.3,6.8-2.5,10.5H89.6V56.7z M111,94H89.6V78H105C105.4,84,107.6,89.5,111,94z
	 M110.8,57.8v-1.2h0.9C111.4,57,111.1,57.4,110.8,57.8z M128.2,46.5c-4.9,1.1-9.4,3.4-13.1,6.6c-0.2-0.1-0.5-0.2-0.8-0.2h-3.6V35.4
	h17.5V46.5z M149.5,49.6c-4.3-2.4-9.3-3.8-14.6-3.8c-1,0-1.9,0-2.8,0.1V35.4h17.4V49.6z"/>
<path d="M134.8,97.7c-12.2,0-22-9.9-21.9-22.1c0-4.1,1.2-8.1,3.4-11.6c0.7-0.8,1.9-0.9,2.7-0.3c0.7,0.5,0.9,1.5,0.5,2.3
	c-5.4,8.5-2.9,19.7,5.6,25.1s19.7,2.9,25.1-5.6c5.4-8.5,2.9-19.7-5.6-25.1c-6.6-4.2-15-3.7-21.1,1.1c-0.8,0.7-2,0.5-2.7-0.3
	s-0.5-2,0.3-2.7c9.5-7.6,23.3-6.1,30.9,3.4c7.6,9.5,6.1,23.3-3.4,30.9C144.7,96,139.9,97.7,134.8,97.7z"/>
<path d="M150.7,78.8c-0.1,0.9-0.8,1.7-1.8,1.8h-14.1c-1,0-1.9-0.9-1.9-1.9V64.8c-0.1-1.1,0.7-2,1.8-2c1-0.1,1.9,0.7,2,1.8
	c0,0.1,0,0.2,0,0.3v12H149C150,76.9,150.8,77.8,150.7,78.8z"/>
<rect y="96.3" class="st0" width="163.7" height="73.9"/>
<text transform="matrix(1 0 0 1 0 162.7627)" class="st1 st2 st3">30</text>
</svg>
