<?xml version="1.0" encoding="utf-8"?>
<!-- Generator: Adobe Illustrator 22.0.0, SVG Export Plug-In . SVG Version: 6.00 Build 0)  -->
<svg version="1.1" id="line" xmlns="http://www.w3.org/2000/svg" xmlns:xlink="http://www.w3.org/1999/xlink" x="0px" y="0px"
	 viewBox="0 0 57.4 23.9" style="enable-background:new 0 0 57.4 23.9;" xml:space="preserve">
<path d="M4.1,0l49.3,0c2.2,0,4.1,1.8,4.1,4.1v0c0,2.2-1.8,4.1-4.1,4.1l-49.3,0C1.8,8.1,0,6.3,0,4.1l0,0C0,1.8,1.8,0,4.1,0z"/>
<path d="M4.1,15.8h49.3c2.2,0,4.1,1.8,4.1,4.1v0c0,2.2-1.8,4.1-4.1,4.1H4.1c-2.2,0-4.1-1.8-4.1-4.1v0C0,17.6,1.8,15.8,4.1,15.8z"/>
</svg>
