<?xml version="1.0" encoding="utf-8"?>
<!-- Generator: Adobe Illustrator 22.0.0, SVG Export Plug-In . SVG Version: 6.00 Build 0)  -->
<svg version="1.1" xmlns="http://www.w3.org/2000/svg" xmlns:xlink="http://www.w3.org/1999/xlink" x="0px" y="0px"
	 viewBox="0 0 83.8 84" style="enable-background:new 0 0 83.8 84;" xml:space="preserve">
<style type="text/css">
	.st0{display:none;}
	.st1{display:inline;opacity:0.57;}
</style>
<g id="Layer_2" xmlns:cc="http://creativecommons.org/ns#" xmlns:dc="http://purl.org/dc/elements/1.1/" xmlns:inkscape="http://www.inkscape.org/namespaces/inkscape" xmlns:rdf="http://www.w3.org/1999/02/22-rdf-syntax-ns#" xmlns:sodipodi="http://sodipodi.sourceforge.net/DTD/sodipodi-0.dtd" xmlns:svg="http://www.w3.org/2000/svg" class="st0">
	<g transform="translate(0,-952.36218)" class="st1">
		<path d="M66.8,952.4c6,13,20.5,2.2,28,10C93.1,948.9,81.4,959.8,66.8,952.4z M84.8,964.4v24.5l-14,7.5v-14l-28,14v-14l-28,14v40
			h84v-72H84.8z M25.8,1009.4h14v12h-14V1009.4z M49.8,1009.4h14v12h-14V1009.4z M73.8,1009.4h14v12h-14V1009.4z"/>
	</g>
</g>
<g id="Layer_1" xmlns:cc="http://creativecommons.org/ns#" xmlns:dc="http://purl.org/dc/elements/1.1/" xmlns:inkscape="http://www.inkscape.org/namespaces/inkscape" xmlns:rdf="http://www.w3.org/1999/02/22-rdf-syntax-ns#" xmlns:sodipodi="http://sodipodi.sourceforge.net/DTD/sodipodi-0.dtd" xmlns:svg="http://www.w3.org/2000/svg">
	<g transform="translate(0,-952.36218)">
		<path d="M51.7,952.4c6,13,20.5,2.2,28,10C77.9,948.9,66.2,959.8,51.7,952.4z M69.7,964.4v24.5l-14,7.5v-14l-28,14v-14l-28,14v40
			h84v-72H69.7z M10.7,1009.4h14v12h-14V1009.4z M34.7,1009.4h14v12h-14V1009.4z M58.7,1009.4h14v12h-14V1009.4z"/>
	</g>
</g>
</svg>
