<?xml version="1.0" encoding="utf-8"?>
<!-- Generator: Adobe Illustrator 22.0.0, SVG Export Plug-In . SVG Version: 6.00 Build 0)  -->
<svg version="1.1" id="Layer_1" xmlns="http://www.w3.org/2000/svg" xmlns:xlink="http://www.w3.org/1999/xlink" x="0px" y="0px"
	 viewBox="0 0 117.2 84" style="enable-background:new 0 0 117.2 84;" xml:space="preserve">
<style type="text/css">
	.st0{opacity:0.1;}
	.st1{opacity:0.24;}
</style>
<g class="st0">
	<polygon points="103.7,12 103.7,36.5 100.7,38.1 100.7,57 106.7,57 106.7,69 100.7,69 100.7,84 117.7,84 117.7,12 	"/>
	<polygon points="61.7,35.5 61.7,30 55.7,33 55.7,38.5 	"/>
	<path d="M96,6.9c6.2,0.5,13.2-1.6,17.7,3.1c-1.8-13.5-13.5-2.6-28-10c0.5,1.1,1,1.9,1.6,2.7C91.5,2.6,94.5,3,96,6.9z"/>
	<polygon points="86.7,36.5 86.7,31.5 83.7,33 83.7,38.1 	"/>
</g>
<g id="Layer_3">
	<path class="st1" d="M78.9,6.9c6.2,0.5,13.2-1.6,17.8,3.1c-0.2-1.2-0.4-2.3-0.7-3.1c-1.5-3.9-4.5-4.3-8.6-4.2
		c-4.9,0.1-11.4,1-18.6-2.7c0.5,1.1,1.1,2,1.7,2.8C74.5,2.7,77.5,3,78.9,6.9z"/>
	<polygon class="st1" points="100.7,57 100.7,38.1 100.7,12 86.7,12 86.7,31.5 86.7,36.5 83.7,38.1 83.7,57 89.7,57 89.7,69 
		83.7,69 83.7,84 100.7,84 100.7,69 	"/>
	<polygon class="st1" points="55.7,44 69.7,36.5 69.7,31.5 61.7,35.5 55.7,38.5 	"/>
	<polygon class="st1" points="44.7,35.5 44.7,30 27.7,38.5 27.7,44 	"/>
</g>
<g id="Layer_2">
	<path d="M83.7,57V38.1V33V12h-14v19.5v5l-14,7.5v-5.5V33v-3l-11,5.5l-17,8.5v-5.5V30l-28,14v40h84v0V69V57z M24.7,69h-8h-6V57h6h8
		V69z M48.7,57v12v0h-14v0V57h7h3H48.7z M58.7,69V57h7h3h4v12v0L58.7,69C58.7,69,58.7,69,58.7,69z"/>
	<path d="M79.7,10c-0.2-1.3-0.4-2.3-0.8-3.2c-1.5-3.8-4.5-4.2-8.6-4.1c-5,0.1-11.5,1-18.7-2.7C57.7,13,72.2,2.2,79.7,10z"/>
</g>
</svg>
