<?xml version="1.0" encoding="utf-8"?>
<!-- Generator: Adobe Illustrator 22.0.0, SVG Export Plug-In . SVG Version: 6.00 Build 0)  -->
<svg version="1.1" xmlns="http://www.w3.org/2000/svg" xmlns:xlink="http://www.w3.org/1999/xlink" x="0px" y="0px"
	 viewBox="0 0 268.4 312.6" style="enable-background:new 0 0 268.4 312.6;" xml:space="preserve">
<style type="text/css">
	.st0{fill:#777777;}
	.st1{fill:#D54C69;}
	.st2{fill:#F1CE1A;}
	.st3{fill:#A4CE2C;}
	.st4{fill:#4ABEB8;}
</style>
<g id="Layer_1">
	<g id="A_1_">
	</g>
</g>
<g id="Layer_2">
	<g id="A">
		<path class="st0" d="M99.4,312c-6.9-3.2-13.9-6.4-20.8-9.7l5.5-35.1H26.7c-3.3,11.7-6.6,23.4-9.9,35.1c-6.1,3.2-12.2,6.4-18.3,9.7
			C32.1,312,65.8,312,99.4,312z"/>
		<polyline class="st0" points="8.9,307.1 -1.5,312 95.2,312 99.4,312 88.9,307.1 		"/>
		<polygon class="st1" points="240.4,194.9 44.1,194.9 29.7,251.4 253.2,249.9 		"/>
		<polygon class="st2" points="236.5,180.9 48.7,180.9 59.7,133.7 225.2,133.7 		"/>
		<polygon class="st3" points="223.1,117.3 63.3,119.1 74.9,71.6 211.6,71.6 		"/>
		<polygon class="st4" points="208.6,55.8 76.4,55.8 90,0.9 193.4,0.9 		"/>
	</g>
</g>
</svg>
