<?xml version="1.0" encoding="utf-8"?>
<!-- Generator: Adobe Illustrator 22.0.0, SVG Export Plug-In . SVG Version: 6.00 Build 0)  -->
<svg version="1.1" xmlns="http://www.w3.org/2000/svg" xmlns:xlink="http://www.w3.org/1999/xlink" x="0px" y="0px"
	 viewBox="0 0 1304.1 421.9" style="enable-background:new 0 0 1304.1 421.9;" xml:space="preserve">
<style type="text/css">
	.st0{fill:#777777;}
	.st1{font-family:'MyriadPro-Regular';}
	.st2{font-size:101.0314px;}
	.st3{letter-spacing:36;}
	.st4{fill:#D54C69;}
	.st5{fill:#F1CE1A;}
	.st6{fill:#A4CE2C;}
	.st7{fill:#4ABEB8;}
</style>
<g id="Layer_1">
	<text transform="matrix(1 0 0 1 -0.4234 420.6831)" class="st0 st1 st2 st3">MEDIA SOLUTIONS</text>
	<polygon id="E" class="st0" points="1305.1,-0.8 1132.6,-0.8 1132.6,305.4 1305.1,305.5 1305.1,237.6 1206,237.2 1206,186.6 
		1305.1,186.3 1305.1,116.4 1205.6,116.4 1205.2,71 1305.1,70.2 	"/>
	<path id="D" class="st0" d="M1085.3,35.9c-4.3-28-37.9-36.7-37.9-36.7H875.3v306.3c0,0,146.8-1.2,176.8,0
		c30,1.2,33.2-34.3,33.2-34.3S1089.6,63.9,1085.3,35.9z M1006.2,234.5h-53.7c-1.1,0-2-0.9-2-2v-153c0-1.1,0.9-2,2-2h58
		c1.1,0,2,0.9,2,2v143.3c0,0.1,0,0.2,0,0.3C1012.8,224.6,1014.3,234.5,1006.2,234.5z"/>
	<g id="A_1_">
		<polygon class="st0" points="758.9,265.6 818.9,265.6 829.9,305.4 768.4,305.4 		"/>
		<path class="st0" d="M661.5,310.3c-6.9-3.2-13.9-6.4-20.8-9.7l5.5-35.1h-57.4c-3.3,11.7-6.6,23.4-9.9,35.1
			c-6.1,3.2-12.2,6.4-18.3,9.7C594.2,310.3,627.9,310.3,661.5,310.3z"/>
		<polyline class="st0" points="571,305.4 560.6,310.3 657.3,310.3 661.5,310.3 651,305.4 		"/>
		<polygon class="st4" points="802.5,193.2 606.2,193.2 591.8,249.7 815.3,248.2 		"/>
		<polygon class="st5" points="798.6,179.3 610.8,179.3 621.8,132 787.3,132 		"/>
		<polygon class="st6" points="785.2,115.7 625.4,117.5 637,69.9 773.7,69.9 		"/>
		<polygon class="st7" points="770.7,54.2 638.5,54.2 652.1,-0.8 755.5,-0.8 		"/>
	</g>
	<polygon id="V" class="st0" points="483.8,184.7 451.1,-0.8 379.2,-0.8 440.4,305.4 530,305.4 588.8,-0.8 517,-0.8 	"/>
	<polygon id="N" class="st0" points="190.6,305.4 123.5,305.4 123.5,-0.8 190.6,-0.8 259.7,129 259.7,-0.8 330.3,-0.8 330.3,305.4 
		261.2,305.4 191.8,173.6 	"/>
	<polygon id="I" class="st0" points="-0.4,-4 76.9,-4 76.5,305.4 -0.4,305.4 	"/>
</g>
<g id="Layer_2">
	<g id="A">
	</g>
</g>
</svg>
