<?xml version="1.0" encoding="utf-8"?>
<!-- Generator: Adobe Illustrator 22.0.0, SVG Export Plug-In . SVG Version: 6.00 Build 0)  -->
<svg version="1.1" id="Layer_1" xmlns="http://www.w3.org/2000/svg" xmlns:xlink="http://www.w3.org/1999/xlink" x="0px" y="0px"
	 viewBox="0 0 79.4 92.6" style="enable-background:new 0 0 79.4 92.6;" xml:space="preserve">
<path d="M26.6,20.8H50l8.4-13.1c1.3-2.1,0.9-4.8-0.9-6.4c-1.9-1.6-4.6-1.7-6.5-0.1L45.2,6l-2.8-3.9c-1-1.3-2.5-2.1-4.1-2.1
	c-1.6,0-3.2,0.9-4.1,2.2L31.6,6l-6-4.9c-1.9-1.5-4.6-1.5-6.5,0.2s-2.2,4.4-0.9,6.4L26.6,20.8z"/>
<path d="M43.6,64l-0.9-0.3V73l0.8-0.2c3.4-0.7,4.1-2.7,4.1-4.3C47.7,65.7,45.4,64.6,43.6,64z"/>
<path d="M34,53.6c0,2.1,1.1,3.5,3.4,4.4l0.9,0.4v-9.5l-0.9,0.3C35.2,49.8,34,51.4,34,53.6z"/>
<path d="M56.7,27.1c-0.8-0.5-2.4-1.2-4-1.2c-0.2,0-1,0-2.2,0l0,0c-1.8,0-2.8,0.9-1.4,3.1L56,39.7c0.8,1.2,0.4,2.8-0.8,3.5
	c-0.4,0.3-0.9,0.4-1.4,0.4c-0.8,0-1.7-0.4-2.2-1.2l-8.5-13.3C43.1,29.1,43,29,43,28.9c-1.8-2.7-2.4-2.9-3.6-2.9
	c-1.5,0-2.2,1.4-3,3.1L34,34.4c-0.4,1-1.4,1.5-2.3,1.5c-0.4,0-0.7-0.1-1-0.2c-1.3-0.6-1.9-2.1-1.3-3.4l1.3-2.9
	c0-0.1,0.1-0.1,0.1-0.2c1-2.1,0.6-3.2-1.2-3.2l0,0c-0.9,0-1.6,0-2.3,0c-2.4,0-4.1,1-4.9,1.5C11.1,34.6,0,47,0,61.5
	c0,11.6,5.2,31.1,39.7,31.1c34.6,0,39.7-19.5,39.7-31.1C79.4,46.8,68,34.3,56.7,27.1z M43.3,77.2l-0.6,0.1v2.6
	c0,0.4-0.3,0.7-0.7,0.7h-3c-0.4,0-0.7-0.3-0.7-0.7v-2.6l-0.6-0.1c-2.9-0.3-5.4-1-7.6-2.1c-0.4-0.2-0.6-0.4-0.5-1.1l0.3-2.8
	c0.1-0.5,0.3-0.5,0.4-0.5c0.1,0,0.2,0,0.4,0.1c2,1,4.4,1.7,6.8,2l0.8,0.1V62.7l-0.5-0.1c-4.2-1-8.7-2.5-8.7-8.7
	c0-5.2,2.9-8.2,8.6-8.9l0.6-0.1v-3c0-0.4,0.3-0.7,0.7-0.7h3c0.4,0,0.7,0.3,0.7,0.7v3l0.6,0.1c4.8,0.6,7.5,2.6,8.3,6.1
	c0,0.2,0.1,0.4-0.1,0.5C51.4,51.9,51.2,52,51,52l-3.6,0.6c-0.1,0-0.2,0-0.2,0c-0.2,0-0.4,0-0.7-0.7c-0.5-1.3-1.5-2.2-2.9-2.7
	L42.7,49v10.4l0.5,0.1c4.9,1,9.3,2.4,9.3,8.7C52.6,73.5,49.6,76.5,43.3,77.2z"/>
</svg>
