<?xml version="1.0" encoding="utf-8"?>
<!-- Generator: Adobe Illustrator 22.0.0, SVG Export Plug-In . SVG Version: 6.00 Build 0)  -->
<svg version="1.1" xmlns="http://www.w3.org/2000/svg" xmlns:xlink="http://www.w3.org/1999/xlink" x="0px" y="0px"
	 viewBox="0 0 146.3 92.6" style="enable-background:new 0 0 146.3 92.6;" xml:space="preserve">
<style type="text/css">
	.st0{fill:none;}
	.st1{stroke:#FFFFFF;stroke-width:0.25;stroke-miterlimit:10;}
</style>
<g id="Layer_1">
	<path d="M26.6,20.8H50l8.4-13.1c1.3-2.1,0.9-4.8-0.9-6.4c-1.9-1.6-4.6-1.7-6.5-0.1L45.2,6l-2.8-3.9c-1-1.3-2.5-2.1-4.1-2.1
		s-3.2,0.9-4.1,2.2L31.6,6l-6-4.9c-1.9-1.5-4.6-1.5-6.5,0.2s-2.2,4.4-0.9,6.4L26.6,20.8z"/>
	<g>
		<path class="st0" d="M37.8,62.6l0.5,0.1v10.2l-0.8-0.1c-2.4-0.3-4.8-1-6.8-2c-0.2-0.1-0.3-0.1-0.4-0.1c-0.1,0-0.3,0-0.4,0.5
			L29.6,74c-0.1,0.7,0.1,0.9,0.5,1.1c2.2,1.1,4.7,1.8,7.6,2.1l0.6,0.1v2.6c0,0.4,0.3,0.7,0.7,0.7h3c0.4,0,0.7-0.3,0.7-0.7v-2.6
			l0.6-0.1c6.3-0.7,9.3-3.7,9.2-9c0-6.3-4.4-7.7-9.3-8.7l-0.5-0.1V49l0.9,0.2c1.4,0.5,2.4,1.4,2.9,2.7c0.3,0.7,0.5,0.7,0.7,0.7
			c0,0,0.1,0,0.2,0L51,52c0.2,0,0.4-0.1,0.5-0.4c0.2-0.1,0.1-0.3,0.1-0.5c-0.8-3.5-3.5-5.5-8.3-6.1l-0.6-0.1v-3
			c0-0.4-0.3-0.7-0.7-0.7h-3c-0.4,0-0.7,0.3-0.7,0.7v3L37.7,45c-5.7,0.7-8.6,3.7-8.6,8.9C29.1,60.1,33.6,61.6,37.8,62.6z M42.7,63.7
			l0.9,0.3c1.8,0.6,4.1,1.7,4,4.5c0,1.6-0.7,3.6-4.1,4.3L42.7,73V63.7z M37.4,49.2l0.9-0.3v9.5L37.4,58c-2.3-0.9-3.4-2.3-3.4-4.4
			C34,51.4,35.2,49.8,37.4,49.2z"/>
		<path d="M47.6,68.5c0.1-2.8-2.2-3.9-4-4.5l-0.9-0.3V73l0.8-0.2C46.9,72.1,47.6,70.1,47.6,68.5z"/>
		<path d="M37.4,58l0.9,0.4v-9.5l-0.9,0.3c-2.2,0.6-3.4,2.2-3.4,4.4C34,55.7,35.1,57.1,37.4,58z"/>
		<path d="M56.7,27.1c-0.8-0.5-2.4-1.2-4-1.2c-0.2,0-1,0-2.2,0c-1.8,0-2.8,0.9-1.4,3.1L56,39.7c0.8,1.2,0.4,2.8-0.8,3.5
			c-0.4,0.3-0.9,0.4-1.4,0.4c-0.8,0-1.7-0.4-2.2-1.2l-8.5-13.3c0,0-0.1-0.1-0.1-0.2c-1.8-2.7-2.4-2.9-3.6-2.9c-1.5,0-2.2,1.4-3,3.1
			L34,34.4c-0.4,1-1.4,1.5-2.3,1.5c-0.4,0-0.7-0.1-1-0.2c-1.3-0.6-1.9-2.1-1.3-3.4l1.3-2.9c0-0.1,0.1-0.1,0.1-0.2
			c1-2.1,0.6-3.2-1.2-3.2c-0.9,0-1.6,0-2.3,0c-2.4,0-4.1,1-4.9,1.5C11.1,34.6,0,47,0,61.5c0,11.6,5.2,31.1,39.7,31.1
			c34.6,0,39.7-19.5,39.7-31.1C79.4,46.8,68,34.3,56.7,27.1z M37.7,45l0.6-0.1v-3c0-0.4,0.3-0.7,0.7-0.7h3c0.4,0,0.7,0.3,0.7,0.7v3
			l0.6,0.1c4.8,0.6,7.5,2.6,8.3,6.1c0,0.2,0.1,0.4-0.1,0.5C51.4,51.9,51.2,52,51,52l-3.6,0.6c-0.1,0-0.2,0-0.2,0
			c-0.2,0-0.4,0-0.7-0.7c-0.5-1.3-1.5-2.2-2.9-2.7L42.7,49v10.4l0.5,0.1c4.9,1,9.3,2.4,9.3,8.7c0.1,5.3-2.9,8.3-9.2,9l-0.6,0.1v2.6
			c0,0.4-0.3,0.7-0.7,0.7h-3c-0.4,0-0.7-0.3-0.7-0.7v-2.6l-0.6-0.1c-2.9-0.3-5.4-1-7.6-2.1c-0.4-0.2-0.6-0.4-0.5-1.1l0.3-2.8
			c0.1-0.5,0.3-0.5,0.4-0.5c0.1,0,0.2,0,0.4,0.1c2,1,4.4,1.7,6.8,2l0.8,0.1V62.7l-0.5-0.1c-4.2-1-8.7-2.5-8.7-8.7
			C29.1,48.7,32,45.7,37.7,45z"/>
	</g>
</g>
<g id="Layer_2">
	<path d="M93.7,20.8h23.4l8.4-13.1c1.3-2.1,0.9-4.8-0.9-6.4c-1.9-1.6-4.6-1.7-6.5-0.1L112.3,6l-2.8-3.9c-1-1.3-2.5-2.1-4.1-2.1
		s-3.2,0.9-4.1,2.2L98.7,6l-6-4.9c-1.9-1.5-4.6-1.5-6.5,0.2S84,5.7,85.3,7.7L93.7,20.8z"/>
	<g>
		<path class="st0" d="M104.9,62.6l0.5,0.1v10.2l-0.8-0.1c-2.4-0.3-4.8-1-6.8-2c-0.2-0.1-0.3-0.1-0.4-0.1c-0.1,0-0.3,0-0.4,0.5
			L96.7,74c-0.1,0.7,0.1,0.9,0.5,1.1c2.2,1.1,4.7,1.8,7.6,2.1l0.6,0.1v2.6c0,0.4,0.3,0.7,0.7,0.7h3c0.4,0,0.7-0.3,0.7-0.7v-2.6
			l0.6-0.1c6.3-0.7,9.3-3.7,9.2-9c0-6.3-4.4-7.7-9.3-8.7l-0.5-0.1V49l0.9,0.2c1.4,0.5,2.4,1.4,2.9,2.7c0.3,0.7,0.5,0.7,0.7,0.7
			c0,0,0.1,0,0.2,0l3.6-0.6c0.2,0,0.4-0.1,0.5-0.4c0.2-0.1,0.1-0.3,0.1-0.5c-0.8-3.5-3.5-5.5-8.3-6.1l-0.6-0.1v-3
			c0-0.4-0.3-0.7-0.7-0.7h-3c-0.4,0-0.7,0.3-0.7,0.7v3l-0.6,0.1c-5.7,0.7-8.6,3.7-8.6,8.9C96.2,60.1,100.7,61.6,104.9,62.6z
			 M109.8,63.7l0.9,0.3c1.8,0.6,4.1,1.7,4,4.5c0,1.6-0.7,3.6-4.1,4.3l-0.8,0.2V63.7z M104.5,49.2l0.9-0.3v9.5l-0.9-0.4
			c-2.3-0.9-3.4-2.3-3.4-4.4C101.1,51.4,102.3,49.8,104.5,49.2z"/>
		<path d="M114.7,68.5c0.1-2.8-2.2-3.9-4-4.5l-0.9-0.3V73l0.8-0.2C114,72.1,114.7,70.1,114.7,68.5z"/>
		<path d="M104.5,58l0.9,0.4v-9.5l-0.9,0.3c-2.2,0.6-3.4,2.2-3.4,4.4C101.1,55.7,102.2,57.1,104.5,58z"/>
		<path class="st1" d="M123.8,27.1c-0.8-0.5-2.4-1.2-4-1.2c-0.2,0-1,0-2.2,0c-1.8,0-2.8,0.9-1.4,3.1l6.9,10.7
			c0.8,1.2,0.4,2.8-0.8,3.5c-0.4,0.3-0.9,0.4-1.4,0.4c-0.8,0-1.7-0.4-2.2-1.2l-8.5-13.3c0,0-0.1-0.1-0.1-0.2
			c-1.8-2.7-2.4-2.9-3.6-2.9c-1.5,0-2.2,1.4-3,3.1l-2.4,5.3c-0.4,1-1.4,1.5-2.3,1.5c-0.4,0-0.7-0.1-1-0.2c-1.3-0.6-1.9-2.1-1.3-3.4
			l1.3-2.9c0-0.1,0.1-0.1,0.1-0.2c1-2.1,0.6-3.2-1.2-3.2c-0.9,0-1.6,0-2.3,0c-2.4,0-4.1,1-4.9,1.5c-11.3,7.1-22.4,19.5-22.4,34
			c0,11.6,5.2,31.1,39.7,31.1c34.6,0,39.7-19.5,39.7-31.1C146.5,46.8,135.1,34.3,123.8,27.1z M104.8,45l0.6-0.1v-3
			c0-0.4,0.3-0.7,0.7-0.7h3c0.4,0,0.7,0.3,0.7,0.7v3l0.6,0.1c4.8,0.6,7.5,2.6,8.3,6.1c0,0.2,0.1,0.4-0.1,0.5
			c-0.1,0.3-0.3,0.4-0.5,0.4l-3.6,0.6c-0.1,0-0.2,0-0.2,0c-0.2,0-0.4,0-0.7-0.7c-0.5-1.3-1.5-2.2-2.9-2.7l-0.9-0.2v10.4l0.5,0.1
			c4.9,1,9.3,2.4,9.3,8.7c0.1,5.3-2.9,8.3-9.2,9l-0.6,0.1v2.6c0,0.4-0.3,0.7-0.7,0.7h-3c-0.4,0-0.7-0.3-0.7-0.7v-2.6l-0.6-0.1
			c-2.9-0.3-5.4-1-7.6-2.1c-0.4-0.2-0.6-0.4-0.5-1.1l0.3-2.8c0.1-0.5,0.3-0.5,0.4-0.5c0.1,0,0.2,0,0.4,0.1c2,1,4.4,1.7,6.8,2
			l0.8,0.1V62.7l-0.5-0.1c-4.2-1-8.7-2.5-8.7-8.7C96.2,48.7,99.1,45.7,104.8,45z"/>
	</g>
</g>
</svg>
