<svg xmlns="http://www.w3.org/2000/svg" viewBox="0 0 117.2 84"><path d="M103.7 12v24.5l-3 1.6V57h6v12h-6v15h17V12zm-42 23.5V30l-6 3v5.5zM96 6.9c6.2.5 13.2-1.6 17.7 3.1-1.8-13.5-13.5-2.6-28-10 .5 1.1 1 1.9 1.6 2.7 4.2-.1 7.2.3 8.7 4.2zm-9.3 29.6v-5l-3 1.5v5.1z" opacity=".1"/><path d="M78.9 6.9c6.2.5 13.2-1.6 17.8 3.1-.2-1.2-.4-2.3-.7-3.1-1.5-3.9-4.5-4.3-8.6-4.2-4.9.1-11.4 1-18.6-2.7.5 1.1 1.1 2 1.7 2.8 4-.1 7 .2 8.4 4.1zM100.7 57V12h-14v24.5l-3 1.6V57h6v12h-6v15h17V69zm-45-13l14-7.5v-5l-8 4-6 3zm-11-8.5V30l-17 8.5V44z" opacity=".24"/><path d="M83.7 57V12h-14v24.5l-14 7.5V30l-11 5.5-17 8.5V30l-28 14v40h84V57zm-59 12h-14V57h14v12zm24-12v12h-14V57h14zm10 12V57h14v12h-14zm21-59c-.2-1.3-.4-2.3-.8-3.2-1.5-3.8-4.5-4.2-8.6-4.1-5 .1-11.5 1-18.7-2.7 6.1 13 20.6 2.2 28.1 10z"/></svg>