<?xml version="1.0" encoding="utf-8"?>
<!-- Generator: Adobe Illustrator 22.0.0, SVG Export Plug-In . SVG Version: 6.00 Build 0)  -->
<svg version="1.1" baseProfile="tiny" xmlns="http://www.w3.org/2000/svg" xmlns:xlink="http://www.w3.org/1999/xlink" x="0px"
	 y="0px" viewBox="0 0 1304.1 421.9" xml:space="preserve">
<g id="Layer_1">
	<text transform="matrix(1 0 0 1 -0.4234 420.6831)" fill="#777777" font-family="'MyriadPro-Regular'" font-size="101.0314px">M</text>
	<text transform="matrix(1 0 0 1 116.1655 420.6831)" fill="#777777" font-family="'MyriadPro-Regular'" font-size="101.0314px">E</text>
	<text transform="matrix(1 0 0 1 201.2329 420.6831)" fill="#777777" font-family="'MyriadPro-Regular'" font-size="101.0314px">D</text>
	<text transform="matrix(1 0 0 1 303.8794 420.6831)" fill="#777777" font-family="'MyriadPro-Regular'" font-size="101.0314px">I</text>
	<text transform="matrix(1 0 0 1 363.3867 420.6831)" fill="#777777" font-family="'MyriadPro-Regular'" font-size="101.0314px">A</text>
	<text transform="matrix(1 0 0 1 460.5791 420.6831)" fill="#777777" font-family="'MyriadPro-Regular'" font-size="101.0314px"> </text>
	<text transform="matrix(1 0 0 1 517.3574 420.6831)" fill="#777777" font-family="'MyriadPro-Regular'" font-size="101.0314px">S</text>
	<text transform="matrix(1 0 0 1 602.5268 420.6831)" fill="#777777" font-family="'MyriadPro-Regular'" font-size="101.0314px">O</text>
	<text transform="matrix(1 0 0 1 707.498 420.6831)" fill="#777777" font-family="'MyriadPro-Regular'" font-size="101.0314px">L</text>
	<text transform="matrix(1 0 0 1 786.9072 420.6831)" fill="#777777" font-family="'MyriadPro-Regular'" font-size="101.0314px">U</text>
	<text transform="matrix(1 0 0 1 887.6347 420.6831)" fill="#777777" font-family="'MyriadPro-Regular'" font-size="101.0314px">T</text>
	<text transform="matrix(1 0 0 1 973.2079 420.6831)" fill="#777777" font-family="'MyriadPro-Regular'" font-size="101.0314px">I</text>
	<text transform="matrix(1 0 0 1 1032.7148 420.6831)" fill="#777777" font-family="'MyriadPro-Regular'" font-size="101.0314px">O</text>
	<text transform="matrix(1 0 0 1 1137.6865 420.6831)" fill="#777777" font-family="'MyriadPro-Regular'" font-size="101.0314px">N</text>
	<text transform="matrix(1 0 0 1 1239.5254 420.6831)" fill="#777777" font-family="'MyriadPro-Regular'" font-size="101.0314px">S</text>
	<polygon id="E" fill="#777777" points="1305.1,-0.8 1132.6,-0.8 1132.6,305.4 1305.1,305.5 1305.1,237.6 1206,237.2 1206,186.6 
		1305.1,186.3 1305.1,116.4 1205.6,116.4 1205.2,71 1305.1,70.2 	"/>
	<path id="D" fill="#777777" d="M1085.3,35.9c-4.3-28-37.9-36.7-37.9-36.7H875.3v306.3c0,0,146.8-1.2,176.8,0
		c30,1.2,33.2-34.3,33.2-34.3S1089.6,63.9,1085.3,35.9z M1006.2,234.5h-53.7c-1.1,0-2-0.9-2-2v-153c0-1.1,0.9-2,2-2h58
		c1.1,0,2,0.9,2,2v143.3c0,0.1,0,0.2,0,0.3C1012.8,224.6,1014.3,234.5,1006.2,234.5z"/>
	<g id="A_1_">
		<polygon fill="#777777" points="758.9,265.6 818.9,265.6 829.9,305.4 768.4,305.4 		"/>
		<path fill="#777777" d="M661.5,310.3c-6.9-3.2-13.9-6.4-20.8-9.7l5.5-35.1h-57.4c-3.3,11.7-6.6,23.4-9.9,35.1
			c-6.1,3.2-12.2,6.4-18.3,9.7C594.2,310.3,627.9,310.3,661.5,310.3z"/>
		<polyline fill="#777777" points="571,305.4 560.6,310.3 657.3,310.3 661.5,310.3 651,305.4 		"/>
		<polygon fill="#D54C69" points="802.5,193.2 606.2,193.2 591.8,249.7 815.3,248.2 		"/>
		<polygon fill="#F1CE1A" points="798.6,179.3 610.8,179.3 621.8,132 787.3,132 		"/>
		<polygon fill="#A4CE2C" points="785.2,115.7 625.4,117.5 637,69.9 773.7,69.9 		"/>
		<polygon fill="#4ABEB8" points="770.7,54.2 638.5,54.2 652.1,-0.8 755.5,-0.8 		"/>
	</g>
	<polygon id="V" fill="#777777" points="483.8,184.7 451.1,-0.8 379.2,-0.8 440.4,305.4 530,305.4 588.8,-0.8 517,-0.8 	"/>
	<polygon id="N" fill="#777777" points="190.6,305.4 123.5,305.4 123.5,-0.8 190.6,-0.8 259.7,129 259.7,-0.8 330.3,-0.8 
		330.3,305.4 261.2,305.4 191.8,173.6 	"/>
	<polygon id="I" fill="#777777" points="-0.4,-4 76.9,-4 76.5,305.4 -0.4,305.4 	"/>
</g>
<g id="Layer_2">
	<g id="A">
		<path fill="#777777" d="M692.7-177.2c-6.9-3.2-13.9-6.4-20.8-9.7l5.5-35.1H620c-3.3,11.7-6.6,23.4-9.9,35.1
			c-6.1,3.2-12.2,6.4-18.3,9.7C625.4-177.2,659.1-177.2,692.7-177.2z"/>
		<polyline fill="#777777" points="602.2,-182.1 591.8,-177.2 688.5,-177.2 692.7,-177.2 682.2,-182.1 		"/>
		<polygon fill="#D54C69" points="833.7,-294.3 637.4,-294.3 623,-237.8 846.5,-239.3 		"/>
		<polygon fill="#F1CE1A" points="829.8,-308.2 642,-308.2 653,-355.5 818.5,-355.5 		"/>
		<polygon fill="#A4CE2C" points="816.4,-371.8 656.6,-370 668.2,-417.6 804.9,-417.6 		"/>
		<polygon fill="#4ABEB8" points="801.9,-433.3 669.7,-433.3 683.3,-488.3 786.7,-488.3 		"/>
	</g>
</g>
</svg>
