<svg xmlns="http://www.w3.org/2000/svg" viewBox="0 0 146.3 92.6"><style>.st0{fill:none}</style><g id="Layer_1"><path d="M26.6 20.8H50l8.4-13.1c1.3-2.1.9-4.8-.9-6.4-1.9-1.6-4.6-1.7-6.5-.1L45.2 6l-2.8-3.9C41.4.8 39.9 0 38.3 0s-3.2.9-4.1 2.2L31.6 6l-6-4.9c-1.9-1.5-4.6-1.5-6.5.2s-2.2 4.4-.9 6.4l8.4 13.1z"/><path class="st0" d="M37.8 62.6l.5.1v10.2l-.8-.1c-2.4-.3-4.8-1-6.8-2-.2-.1-.3-.1-.4-.1-.1 0-.3 0-.4.5l-.3 2.8c-.1.7.1.9.5 1.1 2.2 1.1 4.7 1.8 7.6 2.1l.6.1v2.6c0 .4.3.7.7.7h3c.4 0 .7-.3.7-.7v-2.6l.6-.1c6.3-.7 9.3-3.7 9.2-9 0-6.3-4.4-7.7-9.3-8.7l-.5-.1V49l.9.2c1.4.5 2.4 1.4 2.9 2.7.3.7.5.7.7.7h.2L51 52c.2 0 .4-.1.5-.4.2-.1.1-.3.1-.5-.8-3.5-3.5-5.5-8.3-6.1l-.6-.1v-3c0-.4-.3-.7-.7-.7h-3c-.4 0-.7.3-.7.7v3l-.6.1c-5.7.7-8.6 3.7-8.6 8.9 0 6.2 4.5 7.7 8.7 8.7zm4.9 1.1l.9.3c1.8.6 4.1 1.7 4 4.5 0 1.6-.7 3.6-4.1 4.3l-.8.2v-9.3zm-5.3-14.5l.9-.3v9.5l-.9-.4c-2.3-.9-3.4-2.3-3.4-4.4 0-2.2 1.2-3.8 3.4-4.4z"/><path d="M47.6 68.5c.1-2.8-2.2-3.9-4-4.5l-.9-.3V73l.8-.2c3.4-.7 4.1-2.7 4.1-4.3zM37.4 58l.9.4v-9.5l-.9.3c-2.2.6-3.4 2.2-3.4 4.4 0 2.1 1.1 3.5 3.4 4.4z"/><path d="M56.7 27.1c-.8-.5-2.4-1.2-4-1.2h-2.2c-1.8 0-2.8.9-1.4 3.1L56 39.7c.8 1.2.4 2.8-.8 3.5-.4.3-.9.4-1.4.4-.8 0-1.7-.4-2.2-1.2l-8.5-13.3s-.1-.1-.1-.2c-1.8-2.7-2.4-2.9-3.6-2.9-1.5 0-2.2 1.4-3 3.1L34 34.4c-.4 1-1.4 1.5-2.3 1.5-.4 0-.7-.1-1-.2-1.3-.6-1.9-2.1-1.3-3.4l1.3-2.9c0-.1.1-.1.1-.2 1-2.1.6-3.2-1.2-3.2h-2.3c-2.4 0-4.1 1-4.9 1.5C11.1 34.6 0 47 0 61.5c0 11.6 5.2 31.1 39.7 31.1 34.6 0 39.7-19.5 39.7-31.1 0-14.7-11.4-27.2-22.7-34.4zM37.7 45l.6-.1v-3c0-.4.3-.7.7-.7h3c.4 0 .7.3.7.7v3l.6.1c4.8.6 7.5 2.6 8.3 6.1 0 .2.1.4-.1.5-.1.3-.3.4-.5.4l-3.6.6h-.2c-.2 0-.4 0-.7-.7-.5-1.3-1.5-2.2-2.9-2.7l-.9-.2v10.4l.5.1c4.9 1 9.3 2.4 9.3 8.7.1 5.3-2.9 8.3-9.2 9l-.6.1v2.6c0 .4-.3.7-.7.7h-3c-.4 0-.7-.3-.7-.7v-2.6l-.6-.1c-2.9-.3-5.4-1-7.6-2.1-.4-.2-.6-.4-.5-1.1l.3-2.8c.1-.5.3-.5.4-.5.1 0 .2 0 .4.1 2 1 4.4 1.7 6.8 2l.8.1V62.7l-.5-.1c-4.2-1-8.7-2.5-8.7-8.7 0-5.2 2.9-8.2 8.6-8.9z"/></g><g id="Layer_2"><path d="M93.7 20.8h23.4l8.4-13.1c1.3-2.1.9-4.8-.9-6.4-1.9-1.6-4.6-1.7-6.5-.1L112.3 6l-2.8-3.9C108.5.8 107 0 105.4 0s-3.2.9-4.1 2.2L98.7 6l-6-4.9c-1.9-1.5-4.6-1.5-6.5.2s-2.2 4.4-.9 6.4l8.4 13.1z"/><path class="st0" d="M104.9 62.6l.5.1v10.2l-.8-.1c-2.4-.3-4.8-1-6.8-2-.2-.1-.3-.1-.4-.1-.1 0-.3 0-.4.5l-.3 2.8c-.1.7.1.9.5 1.1 2.2 1.1 4.7 1.8 7.6 2.1l.6.1v2.6c0 .4.3.7.7.7h3c.4 0 .7-.3.7-.7v-2.6l.6-.1c6.3-.7 9.3-3.7 9.2-9 0-6.3-4.4-7.7-9.3-8.7l-.5-.1V49l.9.2c1.4.5 2.4 1.4 2.9 2.7.3.7.5.7.7.7h.2l3.6-.6c.2 0 .4-.1.5-.4.2-.1.1-.3.1-.5-.8-3.5-3.5-5.5-8.3-6.1l-.6-.1v-3c0-.4-.3-.7-.7-.7h-3c-.4 0-.7.3-.7.7v3l-.6.1c-5.7.7-8.6 3.7-8.6 8.9 0 6.2 4.5 7.7 8.7 8.7zm4.9 1.1l.9.3c1.8.6 4.1 1.7 4 4.5 0 1.6-.7 3.6-4.1 4.3l-.8.2v-9.3zm-5.3-14.5l.9-.3v9.5l-.9-.4c-2.3-.9-3.4-2.3-3.4-4.4 0-2.2 1.2-3.8 3.4-4.4z"/><path d="M114.7 68.5c.1-2.8-2.2-3.9-4-4.5l-.9-.3V73l.8-.2c3.4-.7 4.1-2.7 4.1-4.3zM104.5 58l.9.4v-9.5l-.9.3c-2.2.6-3.4 2.2-3.4 4.4 0 2.1 1.1 3.5 3.4 4.4z"/><path d="M123.8 27.1c-.8-.5-2.4-1.2-4-1.2h-2.2c-1.8 0-2.8.9-1.4 3.1l6.9 10.7c.8 1.2.4 2.8-.8 3.5-.4.3-.9.4-1.4.4-.8 0-1.7-.4-2.2-1.2l-8.5-13.3s-.1-.1-.1-.2c-1.8-2.7-2.4-2.9-3.6-2.9-1.5 0-2.2 1.4-3 3.1l-2.4 5.3c-.4 1-1.4 1.5-2.3 1.5-.4 0-.7-.1-1-.2-1.3-.6-1.9-2.1-1.3-3.4l1.3-2.9c0-.1.1-.1.1-.2 1-2.1.6-3.2-1.2-3.2h-2.3c-2.4 0-4.1 1-4.9 1.5-11.3 7.1-22.4 19.5-22.4 34 0 11.6 5.2 31.1 39.7 31.1 34.6 0 39.7-19.5 39.7-31.1 0-14.7-11.4-27.2-22.7-34.4zm-19 17.9l.6-.1v-3c0-.4.3-.7.7-.7h3c.4 0 .7.3.7.7v3l.6.1c4.8.6 7.5 2.6 8.3 6.1 0 .2.1.4-.1.5-.1.3-.3.4-.5.4l-3.6.6h-.2c-.2 0-.4 0-.7-.7-.5-1.3-1.5-2.2-2.9-2.7l-.9-.2v10.4l.5.1c4.9 1 9.3 2.4 9.3 8.7.1 5.3-2.9 8.3-9.2 9l-.6.1v2.6c0 .4-.3.7-.7.7h-3c-.4 0-.7-.3-.7-.7v-2.6l-.6-.1c-2.9-.3-5.4-1-7.6-2.1-.4-.2-.6-.4-.5-1.1l.3-2.8c.1-.5.3-.5.4-.5.1 0 .2 0 .4.1 2 1 4.4 1.7 6.8 2l.8.1V62.7l-.5-.1c-4.2-1-8.7-2.5-8.7-8.7 0-5.2 2.9-8.2 8.6-8.9z" stroke="#fff" stroke-width=".25" stroke-miterlimit="10"/></g></svg>